<?xml version="1.0" encoding="UTF-8" standalone="no"?><svg xmlns="http://www.w3.org/2000/svg" xmlns:xlink="http://www.w3.org/1999/xlink" contentScriptType="application/ecmascript" contentStyleType="text/css" height="856px" preserveAspectRatio="none" style="width:1707px;height:856px;" version="1.1" viewBox="0 0 1707 856" width="1707px" zoomAndPan="magnify"><defs><filter height="300%" id="f1vyyo55doxto8" width="300%" x="-1" y="-1"><feGaussianBlur result="blurOut" stdDeviation="2.0"/><feColorMatrix in="blurOut" result="blurOut2" type="matrix" values="0 0 0 0 0 0 0 0 0 0 0 0 0 0 0 0 0 0 .4 0"/><feOffset dx="4.0" dy="4.0" in="blurOut2" result="blurOut3"/><feBlend in="SourceGraphic" in2="blurOut3" mode="normal"/></filter></defs><g><text fill="#000000" font-family="sans-serif" font-size="18" lengthAdjust="spacingAndGlyphs" textLength="102" x="801.5" y="26.708">Parse POST</text><ellipse cx="1007.125" cy="40.9531" fill="#000000" filter="url(#f1vyyo55doxto8)" rx="10" ry="10" style="stroke: none; stroke-width: 1.0;"/><path d="M540.125,60.9531 L540.125,146.6172 A0,0 0 0 0 540.125,146.6172 L906.125,146.6172 A0,0 0 0 0 906.125,146.6172 L906.125,107.7852 L926.125,103.7852 L906.125,99.7852 L906.125,70.9531 L896.125,60.9531 L540.125,60.9531 A0,0 0 0 0 540.125,60.9531 " fill="#FBFB77" filter="url(#f1vyyo55doxto8)" style="stroke: #A80036; stroke-width: 1.0;"/><path d="M896.125,60.9531 L896.125,70.9531 L906.125,70.9531 L896.125,60.9531 " fill="#FBFB77" style="stroke: #A80036; stroke-width: 1.0;"/><text fill="#000000" font-family="sans-serif" font-size="13" lengthAdjust="spacingAndGlyphs" textLength="251" x="546.125" y="78.02">User has selected courses to be either:</text><ellipse cx="551.625" cy="88.7188" fill="#000000" rx="2.5" ry="2.5" style="stroke: #000000; stroke-width: 0.0;"/><text fill="#000000" font-family="sans-serif" font-size="13" lengthAdjust="spacingAndGlyphs" textLength="68" x="557.125" y="93.1528">Mandatory</text><ellipse cx="551.625" cy="103.8516" fill="#000000" rx="2.5" ry="2.5" style="stroke: #000000; stroke-width: 0.0;"/><text fill="#000000" font-family="sans-serif" font-size="13" lengthAdjust="spacingAndGlyphs" textLength="53" x="557.125" y="108.2856">Optional</text><text fill="#000000" font-family="sans-serif" font-size="13" lengthAdjust="spacingAndGlyphs" textLength="341" x="546.125" y="123.4185">And courses should include only the lectures/sections</text><text fill="#000000" font-family="sans-serif" font-size="13" lengthAdjust="spacingAndGlyphs" textLength="313" x="546.125" y="138.5513">the user wishes to potentially take. (default = all)</text><rect fill="#FEFECE" filter="url(#f1vyyo55doxto8)" height="33.9688" rx="12.5" ry="12.5" style="stroke: #A80036; stroke-width: 1.5;" width="162" x="926.125" y="86.8008"/><text fill="#000000" font-family="sans-serif" font-size="12" lengthAdjust="spacingAndGlyphs" textLength="142" x="936.125" y="107.9395">User Chooses Courses</text><rect fill="#FEFECE" filter="url(#f1vyyo55doxto8)" height="33.9688" rx="12.5" ry="12.5" style="stroke: #A80036; stroke-width: 1.5;" width="114" x="950.125" y="166.6172"/><text fill="#000000" font-family="sans-serif" font-size="12" lengthAdjust="spacingAndGlyphs" textLength="94" x="960.125" y="187.7559">POST -&gt; Server</text><polygon fill="#FEFECE" filter="url(#f1vyyo55doxto8)" points="934.125,276.2964,1080.125,276.2964,1092.125,288.2964,1080.125,300.2964,934.125,300.2964,922.125,288.2964,934.125,276.2964" style="stroke: #A80036; stroke-width: 1.5;"/><text fill="#000000" font-family="sans-serif" font-size="11" lengthAdjust="spacingAndGlyphs" textLength="146" x="934.125" y="292.1045">Course Has One Lecture?</text><text fill="#000000" font-family="sans-serif" font-size="11" lengthAdjust="spacingAndGlyphs" textLength="20" x="902.125" y="285.7021">yes</text><text fill="#000000" font-family="sans-serif" font-size="11" lengthAdjust="spacingAndGlyphs" textLength="14" x="1092.125" y="285.7021">no</text><polygon fill="#FEFECE" filter="url(#f1vyyo55doxto8)" points="712.75,310.2964,777.75,310.2964,789.75,322.2964,777.75,334.2964,712.75,334.2964,700.75,322.2964,712.75,310.2964" style="stroke: #A80036; stroke-width: 1.5;"/><text fill="#000000" font-family="sans-serif" font-size="11" lengthAdjust="spacingAndGlyphs" textLength="65" x="712.75" y="326.1045">Conflicting?</text><text fill="#000000" font-family="sans-serif" font-size="11" lengthAdjust="spacingAndGlyphs" textLength="14" x="686.75" y="319.7021">no</text><text fill="#000000" font-family="sans-serif" font-size="11" lengthAdjust="spacingAndGlyphs" textLength="20" x="789.75" y="319.7021">yes</text><path d="M84.5,344.2964 L84.5,399.6948 A0,0 0 0 0 84.5,399.6948 L360.5,399.6948 A0,0 0 0 0 360.5,399.6948 L360.5,375.9956 L380.5,371.9956 L360.5,367.9956 L360.5,354.2964 L350.5,344.2964 L84.5,344.2964 A0,0 0 0 0 84.5,344.2964 " fill="#FBFB77" filter="url(#f1vyyo55doxto8)" style="stroke: #A80036; stroke-width: 1.0;"/><path d="M350.5,344.2964 L350.5,354.2964 L360.5,354.2964 L350.5,344.2964 " fill="#FBFB77" style="stroke: #A80036; stroke-width: 1.0;"/><text fill="#000000" font-family="sans-serif" font-size="13" lengthAdjust="spacingAndGlyphs" textLength="255" x="90.5" y="361.3633">Base Schedule is a JSON object that the</text><text fill="#000000" font-family="sans-serif" font-size="13" lengthAdjust="spacingAndGlyphs" textLength="246" x="90.5" y="376.4961">filter algorithm will work off of to create</text><text fill="#000000" font-family="sans-serif" font-size="13" lengthAdjust="spacingAndGlyphs" textLength="190" x="90.5" y="391.6289">the non-conflicting schedules.</text><rect fill="#FEFECE" filter="url(#f1vyyo55doxto8)" height="33.9688" rx="12.5" ry="12.5" style="stroke: #A80036; stroke-width: 1.5;" width="242" x="380.5" y="355.0112"/><text fill="#000000" font-family="sans-serif" font-size="12" lengthAdjust="spacingAndGlyphs" textLength="222" x="390.5" y="376.1499">Add Lecture Time to Base Schedule</text><polygon fill="#FEFECE" filter="url(#f1vyyo55doxto8)" points="428,419.6948,575,419.6948,587,431.6948,575,443.6948,428,443.6948,416,431.6948,428,419.6948" style="stroke: #A80036; stroke-width: 1.5;"/><text fill="#000000" font-family="sans-serif" font-size="11" lengthAdjust="spacingAndGlyphs" textLength="147" x="428" y="435.5029">Lecture Has One Section?</text><text fill="#000000" font-family="sans-serif" font-size="11" lengthAdjust="spacingAndGlyphs" textLength="20" x="396" y="429.1006">yes</text><polygon fill="#FEFECE" filter="url(#f1vyyo55doxto8)" points="261.5,453.6948,326.5,453.6948,338.5,465.6948,326.5,477.6948,261.5,477.6948,249.5,465.6948,261.5,453.6948" style="stroke: #A80036; stroke-width: 1.5;"/><text fill="#000000" font-family="sans-serif" font-size="11" lengthAdjust="spacingAndGlyphs" textLength="65" x="261.5" y="469.5029">Conflicting?</text><text fill="#000000" font-family="sans-serif" font-size="11" lengthAdjust="spacingAndGlyphs" textLength="14" x="235.5" y="463.1006">no</text><text fill="#000000" font-family="sans-serif" font-size="11" lengthAdjust="spacingAndGlyphs" textLength="20" x="338.5" y="463.1006">yes</text><rect fill="#FEFECE" filter="url(#f1vyyo55doxto8)" height="33.9688" rx="12.5" ry="12.5" style="stroke: #A80036; stroke-width: 1.5;" width="242" x="38" y="487.6948"/><text fill="#000000" font-family="sans-serif" font-size="12" lengthAdjust="spacingAndGlyphs" textLength="222" x="48" y="508.8335">Add Section Time to Base Schedule</text><rect fill="#FEFECE" filter="url(#f1vyyo55doxto8)" height="33.9688" rx="12.5" ry="12.5" style="stroke: #A80036; stroke-width: 1.5;" width="258" x="300" y="487.6948"/><text fill="#000000" font-family="sans-serif" font-size="12" lengthAdjust="spacingAndGlyphs" textLength="238" x="310" y="508.8335">throw NoPossibleSchedules exception</text><polygon fill="#FEFECE" filter="url(#f1vyyo55doxto8)" points="294,527.6636,306,539.6636,294,551.6636,282,539.6636,294,527.6636" style="stroke: #A80036; stroke-width: 1.5;"/><rect fill="#FEFECE" filter="url(#f1vyyo55doxto8)" height="33.9688" rx="12.5" ry="12.5" style="stroke: #A80036; stroke-width: 1.5;" width="242" x="588" y="453.6948"/><text fill="#000000" font-family="sans-serif" font-size="12" lengthAdjust="spacingAndGlyphs" textLength="222" x="598" y="474.8335">Add Section Times to Schedule Pan</text><polygon fill="#FEFECE" filter="url(#f1vyyo55doxto8)" points="501.5,557.6636,513.5,569.6636,501.5,581.6636,489.5,569.6636,501.5,557.6636" style="stroke: #A80036; stroke-width: 1.5;"/><rect fill="#FEFECE" filter="url(#f1vyyo55doxto8)" height="33.9688" rx="12.5" ry="12.5" style="stroke: #A80036; stroke-width: 1.5;" width="258" x="860" y="344.2964"/><text fill="#000000" font-family="sans-serif" font-size="12" lengthAdjust="spacingAndGlyphs" textLength="238" x="870" y="365.4351">throw NoPossibleSchedules exception</text><polygon fill="#FEFECE" filter="url(#f1vyyo55doxto8)" points="745.25,587.6636,757.25,599.6636,745.25,611.6636,733.25,599.6636,745.25,587.6636" style="stroke: #A80036; stroke-width: 1.5;"/><path d="M1410,310.2964 L1410,341.562 L1390,345.562 L1410,349.562 L1410,380.8276 A0,0 0 0 0 1410,380.8276 L1667,380.8276 A0,0 0 0 0 1667,380.8276 L1667,320.2964 L1657,310.2964 L1410,310.2964 A0,0 0 0 0 1410,310.2964 " fill="#FBFB77" filter="url(#f1vyyo55doxto8)" style="stroke: #A80036; stroke-width: 1.0;"/><path d="M1657,310.2964 L1657,320.2964 L1667,320.2964 L1657,310.2964 " fill="#FBFB77" style="stroke: #A80036; stroke-width: 1.0;"/><text fill="#000000" font-family="sans-serif" font-size="13" lengthAdjust="spacingAndGlyphs" textLength="236" x="1416" y="327.3633">Schedule Pan will be a JSON object of</text><text fill="#000000" font-family="sans-serif" font-size="13" lengthAdjust="spacingAndGlyphs" textLength="220" x="1416" y="342.4961">all the courses with lecture/section</text><text fill="#000000" font-family="sans-serif" font-size="13" lengthAdjust="spacingAndGlyphs" textLength="223" x="1416" y="357.6289">times to be filtered out later by the</text><text fill="#000000" font-family="sans-serif" font-size="13" lengthAdjust="spacingAndGlyphs" textLength="126" x="1416" y="372.7617">Gold Pan algorithm.</text><rect fill="#FEFECE" filter="url(#f1vyyo55doxto8)" height="33.9688" rx="12.5" ry="12.5" style="stroke: #A80036; stroke-width: 1.5;" width="242" x="1148" y="328.5776"/><text fill="#000000" font-family="sans-serif" font-size="12" lengthAdjust="spacingAndGlyphs" textLength="222" x="1158" y="349.7163">Add Lecture Times to Schedule Pan</text><polygon fill="#FEFECE" filter="url(#f1vyyo55doxto8)" points="1007.125,617.6636,1019.125,629.6636,1007.125,641.6636,995.125,629.6636,1007.125,617.6636" style="stroke: #A80036; stroke-width: 1.5;"/><polygon fill="#FEFECE" filter="url(#f1vyyo55doxto8)" points="964.125,220.5859,1050.125,220.5859,1062.125,232.5859,1050.125,244.5859,964.125,244.5859,952.125,232.5859,964.125,220.5859" style="stroke: #A80036; stroke-width: 1.5;"/><text fill="#000000" font-family="sans-serif" font-size="11" lengthAdjust="spacingAndGlyphs" textLength="21" x="1011.125" y="254.7964">Yes</text><text fill="#000000" font-family="sans-serif" font-size="11" lengthAdjust="spacingAndGlyphs" textLength="86" x="964.125" y="236.394">More Courses?</text><text fill="#000000" font-family="sans-serif" font-size="11" lengthAdjust="spacingAndGlyphs" textLength="15" x="937.125" y="229.9917">No</text><polygon fill="#FEFECE" filter="url(#f1vyyo55doxto8)" points="895.625,683.6636,1118.625,683.6636,1130.625,695.6636,1118.625,707.6636,895.625,707.6636,883.625,695.6636,895.625,683.6636" style="stroke: #A80036; stroke-width: 1.5;"/><text fill="#000000" font-family="sans-serif" font-size="11" lengthAdjust="spacingAndGlyphs" textLength="223" x="895.625" y="699.4717">thrown NoPossibleSchedules exception</text><text fill="#000000" font-family="sans-serif" font-size="11" lengthAdjust="spacingAndGlyphs" textLength="20" x="863.625" y="693.0693">yes</text><text fill="#000000" font-family="sans-serif" font-size="11" lengthAdjust="spacingAndGlyphs" textLength="14" x="1130.625" y="693.0693">no</text><path d="M513.625,717.6636 L513.625,773.062 A0,0 0 0 0 513.625,773.062 L810.625,773.062 A0,0 0 0 0 810.625,773.062 L810.625,749.3628 L830.625,745.3628 L810.625,741.3628 L810.625,727.6636 L800.625,717.6636 L513.625,717.6636 A0,0 0 0 0 513.625,717.6636 " fill="#FBFB77" filter="url(#f1vyyo55doxto8)" style="stroke: #A80036; stroke-width: 1.0;"/><path d="M800.625,717.6636 L800.625,727.6636 L810.625,727.6636 L800.625,717.6636 " fill="#FBFB77" style="stroke: #A80036; stroke-width: 1.0;"/><text fill="#000000" font-family="sans-serif" font-size="13" lengthAdjust="spacingAndGlyphs" textLength="276" x="519.625" y="734.7305">Reponse should be some sort of error code</text><text fill="#000000" font-family="sans-serif" font-size="13" lengthAdjust="spacingAndGlyphs" textLength="259" x="519.625" y="749.8633">that can be interpreted by the front-end,</text><text fill="#000000" font-family="sans-serif" font-size="13" lengthAdjust="spacingAndGlyphs" textLength="231" x="519.625" y="764.9961">and will display an error for the user.</text><rect fill="#FEFECE" filter="url(#f1vyyo55doxto8)" height="33.9688" rx="12.5" ry="12.5" style="stroke: #A80036; stroke-width: 1.5;" width="86" x="830.625" y="728.3784"/><text fill="#000000" font-family="sans-serif" font-size="12" lengthAdjust="spacingAndGlyphs" textLength="66" x="840.625" y="749.5171">RESPONSE</text><rect fill="#FEFECE" filter="url(#f1vyyo55doxto8)" height="33.9688" rx="12.5" ry="12.5" style="stroke: #A80036; stroke-width: 1.5;" width="191" x="1045.125" y="717.6636"/><text fill="#000000" font-family="sans-serif" font-size="12" lengthAdjust="spacingAndGlyphs" textLength="171" x="1055.125" y="738.8022">Begin Scheduling Algorithm</text><polygon fill="#FEFECE" filter="url(#f1vyyo55doxto8)" points="1007.125,779.062,1019.125,791.062,1007.125,803.062,995.125,791.062,1007.125,779.062" style="stroke: #A80036; stroke-width: 1.5;"/><ellipse cx="1007.125" cy="834.062" fill="#FFFFFF" filter="url(#f1vyyo55doxto8)" rx="11" ry="11" style="stroke: #000000; stroke-width: 1.0;"/><ellipse cx="1007.125" cy="834.062" fill="#000000" rx="6" ry="6" style="stroke: #7F7F7F; stroke-width: 1.0;"/><line style="stroke: #A80036; stroke-width: 1.5;" x1="1007.125" x2="1007.125" y1="50.9531" y2="86.8008"/><polygon fill="#A80036" points="1003.125,76.8008,1007.125,86.8008,1011.125,76.8008,1007.125,80.8008" style="stroke: #A80036; stroke-width: 1.0;"/><line style="stroke: #A80036; stroke-width: 1.5;" x1="1007.125" x2="1007.125" y1="120.7695" y2="166.6172"/><polygon fill="#A80036" points="1003.125,156.6172,1007.125,166.6172,1011.125,156.6172,1007.125,160.6172" style="stroke: #A80036; stroke-width: 1.0;"/><line style="stroke: #A80036; stroke-width: 1.5;" x1="249.5" x2="159" y1="465.6948" y2="465.6948"/><line style="stroke: #A80036; stroke-width: 1.5;" x1="159" x2="159" y1="465.6948" y2="487.6948"/><polygon fill="#A80036" points="155,477.6948,159,487.6948,163,477.6948,159,481.6948" style="stroke: #A80036; stroke-width: 1.0;"/><line style="stroke: #A80036; stroke-width: 1.5;" x1="338.5" x2="429" y1="465.6948" y2="465.6948"/><line style="stroke: #A80036; stroke-width: 1.5;" x1="429" x2="429" y1="465.6948" y2="487.6948"/><polygon fill="#A80036" points="425,477.6948,429,487.6948,433,477.6948,429,481.6948" style="stroke: #A80036; stroke-width: 1.0;"/><line style="stroke: #A80036; stroke-width: 1.5;" x1="159" x2="159" y1="521.6636" y2="539.6636"/><line style="stroke: #A80036; stroke-width: 1.5;" x1="159" x2="282" y1="539.6636" y2="539.6636"/><polygon fill="#A80036" points="272,535.6636,282,539.6636,272,543.6636,276,539.6636" style="stroke: #A80036; stroke-width: 1.0;"/><line style="stroke: #A80036; stroke-width: 1.5;" x1="429" x2="429" y1="521.6636" y2="539.6636"/><line style="stroke: #A80036; stroke-width: 1.5;" x1="429" x2="306" y1="539.6636" y2="539.6636"/><polygon fill="#A80036" points="316,535.6636,306,539.6636,316,543.6636,312,539.6636" style="stroke: #A80036; stroke-width: 1.0;"/><line style="stroke: #A80036; stroke-width: 1.5;" x1="416" x2="294" y1="431.6948" y2="431.6948"/><line style="stroke: #A80036; stroke-width: 1.5;" x1="294" x2="294" y1="431.6948" y2="453.6948"/><polygon fill="#A80036" points="290,443.6948,294,453.6948,298,443.6948,294,447.6948" style="stroke: #A80036; stroke-width: 1.0;"/><line style="stroke: #A80036; stroke-width: 1.5;" x1="587" x2="709" y1="431.6948" y2="431.6948"/><line style="stroke: #A80036; stroke-width: 1.5;" x1="709" x2="709" y1="431.6948" y2="453.6948"/><polygon fill="#A80036" points="705,443.6948,709,453.6948,713,443.6948,709,447.6948" style="stroke: #A80036; stroke-width: 1.0;"/><line style="stroke: #A80036; stroke-width: 1.5;" x1="294" x2="294" y1="551.6636" y2="569.6636"/><line style="stroke: #A80036; stroke-width: 1.5;" x1="294" x2="489.5" y1="569.6636" y2="569.6636"/><polygon fill="#A80036" points="479.5,565.6636,489.5,569.6636,479.5,573.6636,483.5,569.6636" style="stroke: #A80036; stroke-width: 1.0;"/><line style="stroke: #A80036; stroke-width: 1.5;" x1="709" x2="709" y1="487.6636" y2="569.6636"/><line style="stroke: #A80036; stroke-width: 1.5;" x1="709" x2="513.5" y1="569.6636" y2="569.6636"/><polygon fill="#A80036" points="523.5,565.6636,513.5,569.6636,523.5,573.6636,519.5,569.6636" style="stroke: #A80036; stroke-width: 1.0;"/><line style="stroke: #A80036; stroke-width: 1.5;" x1="501.5" x2="501.5" y1="388.98" y2="419.6948"/><polygon fill="#A80036" points="497.5,409.6948,501.5,419.6948,505.5,409.6948,501.5,413.6948" style="stroke: #A80036; stroke-width: 1.0;"/><line style="stroke: #A80036; stroke-width: 1.5;" x1="700.75" x2="501.5" y1="322.2964" y2="322.2964"/><line style="stroke: #A80036; stroke-width: 1.5;" x1="501.5" x2="501.5" y1="322.2964" y2="355.0112"/><polygon fill="#A80036" points="497.5,345.0112,501.5,355.0112,505.5,345.0112,501.5,349.0112" style="stroke: #A80036; stroke-width: 1.0;"/><line style="stroke: #A80036; stroke-width: 1.5;" x1="789.75" x2="989" y1="322.2964" y2="322.2964"/><line style="stroke: #A80036; stroke-width: 1.5;" x1="989" x2="989" y1="322.2964" y2="344.2964"/><polygon fill="#A80036" points="985,334.2964,989,344.2964,993,334.2964,989,338.2964" style="stroke: #A80036; stroke-width: 1.0;"/><line style="stroke: #A80036; stroke-width: 1.5;" x1="501.5" x2="501.5" y1="581.6636" y2="599.6636"/><line style="stroke: #A80036; stroke-width: 1.5;" x1="501.5" x2="733.25" y1="599.6636" y2="599.6636"/><polygon fill="#A80036" points="723.25,595.6636,733.25,599.6636,723.25,603.6636,727.25,599.6636" style="stroke: #A80036; stroke-width: 1.0;"/><line style="stroke: #A80036; stroke-width: 1.5;" x1="989" x2="989" y1="378.2651" y2="599.6636"/><line style="stroke: #A80036; stroke-width: 1.5;" x1="989" x2="757.25" y1="599.6636" y2="599.6636"/><polygon fill="#A80036" points="767.25,595.6636,757.25,599.6636,767.25,603.6636,763.25,599.6636" style="stroke: #A80036; stroke-width: 1.0;"/><line style="stroke: #A80036; stroke-width: 1.5;" x1="922.125" x2="745.25" y1="288.2964" y2="288.2964"/><line style="stroke: #A80036; stroke-width: 1.5;" x1="745.25" x2="745.25" y1="288.2964" y2="310.2964"/><polygon fill="#A80036" points="741.25,300.2964,745.25,310.2964,749.25,300.2964,745.25,304.2964" style="stroke: #A80036; stroke-width: 1.0;"/><line style="stroke: #A80036; stroke-width: 1.5;" x1="1092.125" x2="1269" y1="288.2964" y2="288.2964"/><line style="stroke: #A80036; stroke-width: 1.5;" x1="1269" x2="1269" y1="288.2964" y2="328.5776"/><polygon fill="#A80036" points="1265,318.5776,1269,328.5776,1273,318.5776,1269,322.5776" style="stroke: #A80036; stroke-width: 1.0;"/><line style="stroke: #A80036; stroke-width: 1.5;" x1="745.25" x2="745.25" y1="611.6636" y2="629.6636"/><line style="stroke: #A80036; stroke-width: 1.5;" x1="745.25" x2="995.125" y1="629.6636" y2="629.6636"/><polygon fill="#A80036" points="985.125,625.6636,995.125,629.6636,985.125,633.6636,989.125,629.6636" style="stroke: #A80036; stroke-width: 1.0;"/><line style="stroke: #A80036; stroke-width: 1.5;" x1="1269" x2="1269" y1="362.5464" y2="629.6636"/><line style="stroke: #A80036; stroke-width: 1.5;" x1="1269" x2="1019.125" y1="629.6636" y2="629.6636"/><polygon fill="#A80036" points="1029.125,625.6636,1019.125,629.6636,1029.125,633.6636,1025.125,629.6636" style="stroke: #A80036; stroke-width: 1.0;"/><line style="stroke: #A80036; stroke-width: 1.5;" x1="1007.125" x2="1007.125" y1="244.5859" y2="276.2964"/><polygon fill="#A80036" points="1003.125,266.2964,1007.125,276.2964,1011.125,266.2964,1007.125,270.2964" style="stroke: #A80036; stroke-width: 1.0;"/><line style="stroke: #A80036; stroke-width: 1.5;" x1="1007.125" x2="1007.125" y1="641.6636" y2="651.6636"/><line style="stroke: #A80036; stroke-width: 1.5;" x1="1007.125" x2="1681" y1="651.6636" y2="651.6636"/><polygon fill="#A80036" points="1677,443.0776,1681,433.0776,1685,443.0776,1681,439.0776" style="stroke: #A80036; stroke-width: 1.5;"/><line style="stroke: #A80036; stroke-width: 1.5;" x1="1681" x2="1681" y1="232.5859" y2="651.6636"/><line style="stroke: #A80036; stroke-width: 1.5;" x1="1681" x2="1062.125" y1="232.5859" y2="232.5859"/><polygon fill="#A80036" points="1072.125,228.5859,1062.125,232.5859,1072.125,236.5859,1068.125,232.5859" style="stroke: #A80036; stroke-width: 1.0;"/><line style="stroke: #A80036; stroke-width: 1.5;" x1="952.125" x2="24" y1="232.5859" y2="232.5859"/><polygon fill="#A80036" points="20,429.0776,24,439.0776,28,429.0776,24,433.0776" style="stroke: #A80036; stroke-width: 1.5;"/><line style="stroke: #A80036; stroke-width: 1.5;" x1="24" x2="24" y1="232.5859" y2="663.6636"/><line style="stroke: #A80036; stroke-width: 1.5;" x1="24" x2="1007.125" y1="663.6636" y2="663.6636"/><line style="stroke: #A80036; stroke-width: 1.5;" x1="1007.125" x2="1007.125" y1="663.6636" y2="683.6636"/><polygon fill="#A80036" points="1003.125,673.6636,1007.125,683.6636,1011.125,673.6636,1007.125,677.6636" style="stroke: #A80036; stroke-width: 1.0;"/><line style="stroke: #A80036; stroke-width: 1.5;" x1="1007.125" x2="1007.125" y1="200.5859" y2="220.5859"/><polygon fill="#A80036" points="1003.125,210.5859,1007.125,220.5859,1011.125,210.5859,1007.125,214.5859" style="stroke: #A80036; stroke-width: 1.0;"/><line style="stroke: #A80036; stroke-width: 1.5;" x1="883.625" x2="873.625" y1="695.6636" y2="695.6636"/><line style="stroke: #A80036; stroke-width: 1.5;" x1="873.625" x2="873.625" y1="695.6636" y2="728.3784"/><polygon fill="#A80036" points="869.625,718.3784,873.625,728.3784,877.625,718.3784,873.625,722.3784" style="stroke: #A80036; stroke-width: 1.0;"/><line style="stroke: #A80036; stroke-width: 1.5;" x1="1130.625" x2="1140.625" y1="695.6636" y2="695.6636"/><line style="stroke: #A80036; stroke-width: 1.5;" x1="1140.625" x2="1140.625" y1="695.6636" y2="717.6636"/><polygon fill="#A80036" points="1136.625,707.6636,1140.625,717.6636,1144.625,707.6636,1140.625,711.6636" style="stroke: #A80036; stroke-width: 1.0;"/><line style="stroke: #A80036; stroke-width: 1.5;" x1="873.625" x2="873.625" y1="762.3472" y2="791.062"/><line style="stroke: #A80036; stroke-width: 1.5;" x1="873.625" x2="995.125" y1="791.062" y2="791.062"/><polygon fill="#A80036" points="985.125,787.062,995.125,791.062,985.125,795.062,989.125,791.062" style="stroke: #A80036; stroke-width: 1.0;"/><line style="stroke: #A80036; stroke-width: 1.5;" x1="1140.625" x2="1140.625" y1="751.6323" y2="791.062"/><line style="stroke: #A80036; stroke-width: 1.5;" x1="1140.625" x2="1019.125" y1="791.062" y2="791.062"/><polygon fill="#A80036" points="1029.125,787.062,1019.125,791.062,1029.125,795.062,1025.125,791.062" style="stroke: #A80036; stroke-width: 1.0;"/><line style="stroke: #A80036; stroke-width: 1.5;" x1="1007.125" x2="1007.125" y1="803.062" y2="823.062"/><polygon fill="#A80036" points="1003.125,813.062,1007.125,823.062,1011.125,813.062,1007.125,817.062" style="stroke: #A80036; stroke-width: 1.0;"/><!--
@startuml
title Parse POST

start

:User Chooses Courses;
note left
    User has selected courses to be either:
    * Mandatory
    * Optional
    And courses should include only the lectures/sections 
    the user wishes to potentially take. (default = all)
end note

:POST -> Server;

while (More Courses?) is (Yes)
    if (Course Has One Lecture?) then (yes)
        if (Conflicting?) then (no)
            :Add Lecture Time to Base Schedule;
            note left
                Base Schedule is a JSON object that the
                filter algorithm will work off of to create
                the non-conflicting schedules.
            end note
            if (Lecture Has One Section?) then (yes)
                if (Conflicting?) then (no)
                    :Add Section Time to Base Schedule;
                else (yes)
                    :throw NoPossibleSchedules exception;
                endif
            else
                :Add Section Times to Schedule Pan;
            endif
        else (yes)
            :throw NoPossibleSchedules exception;
        endif
    else (no)
        :Add Lecture Times to Schedule Pan;
        note right
            Schedule Pan will be a JSON object of
            all the courses with lecture/section 
            times to be filtered out later by the
            Gold Pan algorithm.
        end note
    endif
endwhile (No)

if (thrown NoPossibleSchedules exception) then (yes)
    :RESPONSE;
    note left
        Reponse should be some sort of error code
        that can be interpreted by the front-end,
        and will display an error for the user.
    end note
else (no)
    :Begin Scheduling Algorithm;
endif

stop
@enduml

PlantUML version 1.2019.05(Sat Apr 20 16:45:36 UTC 2019)
(GPL source distribution)
Java Runtime: Java(TM) SE Runtime Environment
JVM: Java HotSpot(TM) 64-Bit Server VM
Java Version: 1.7.0_25-b15
Operating System: Linux
Default Encoding: UTF-8
Language: en
Country: US
--></g></svg>